<?xml version="1.0" encoding="UTF-8"?>
<!-- Created with Inkscape (http://www.inkscape.org/) -->
<svg width="5.6696mm" height="7.894mm" version="1.1" viewBox="0 0 5.6696 7.894" xmlns="http://www.w3.org/2000/svg" xmlns:cc="http://creativecommons.org/ns#" xmlns:dc="http://purl.org/dc/elements/1.1/" xmlns:rdf="http://www.w3.org/1999/02/22-rdf-syntax-ns#" xmlns:xlink="http://www.w3.org/1999/xlink">
 <metadata>
  <rdf:RDF>
   <cc:Work rdf:about="">
    <dc:format>image/svg+xml</dc:format>
    <dc:type rdf:resource="http://purl.org/dc/dcmitype/StillImage"/>
    <dc:title/>
   </cc:Work>
  </rdf:RDF>
 </metadata>
 <g transform="translate(-94.343 -142.15)" style="display:none" />
 <g transform="translate(-94.343 -142.15)">
  <path d="m70.213 151.39c-1.1684-0.47096-1.9744-1.2004-2.4878-2.2515-0.25765-0.52748-0.30045-0.76262-0.30146-1.6562-0.0013-0.95628 0.0294-1.1009 0.37264-1.7675 0.48203-0.93624 1.4753-1.8364 2.3964-2.1716 0.91214-0.33198 2.2418-0.33198 3.1539 0 0.92102 0.33522 1.9144 1.2353 2.3964 2.1716 0.34003 0.66038 0.37345 0.81524 0.36968 1.7128-0.0032 0.76466-0.06298 1.1283-0.26547 1.6154-0.34289 0.82478-1.192 1.7011-2.0981 2.1654-0.6494 0.33278-0.82896 0.37298-1.8078 0.4048-0.93709 0.0304-1.1751-2.6e-4 -1.7283-0.22322z" style="fill:#f1582e;stroke-width:.11186"/>
  <g transform="translate(13.881 -18.208)">
   <circle cx="83.296" cy="165.42" r="2.8348" style="stroke-width:.40705"/>
   <circle cx="83.297" cy="165.37" r="2.2206" style="fill:#e8edc9;stroke-width:.10193"/>
   <circle cx="83.297" cy="165.42" r="1.7481" style="fill:#f1582e;stroke-width:.080242"/>
  </g>
  <path d="m97.37 143.89s0.46772-2.0212 2.1047-1.6537c0 0-0.56795 2.0713-2.1047 1.6537z" style="fill:none"/>
  <g transform="translate(13.965 -18.341)">
   <path d="m82.975 162.27s-0.96885 0.28397-1.4366-1.4533c0 0 1.5201-0.81851 1.4366 1.4533z" style="fill:#4d6e39"/>
   <path d="m83.405 162.23s0.53454-2.1883 2.1047-1.6537c0 0-0.73499 2.1214-2.1047 1.6537z" style="fill:#4c6b37"/>
  </g>
 </g>
</svg>
